<?xml version="1.0" encoding="utf-8"?>
<!-- Generator: Adobe Illustrator 16.0.0, SVG Export Plug-In . SVG Version: 6.00 Build 0)  -->
<!DOCTYPE svg PUBLIC "-//W3C//DTD SVG 1.1//EN" "http://www.w3.org/Graphics/SVG/1.1/DTD/svg11.dtd">
<svg version="1.1" id="레이어_1" xmlns="http://www.w3.org/2000/svg" xmlns:xlink="http://www.w3.org/1999/xlink" x="0px"
	 y="0px" width="55px" height="55px" viewBox="0 0 55 55" enable-background="new 0 0 55 55" xml:space="preserve">
<g>
	<path fill="#6B6E72" d="M27.016,47.831c-4.846,0-12.263-0.508-13.814-0.961c-1.552-0.457-4.838-4.293-3.377-10.133
		c1.46-5.844,4.382-11.774,4.382-15.79c0-4.02-1.37-4.84-1.37-4.84s-2.557,0.578-3.377,0.699c0,0-2.708-0.668-2.708-2.676
		c0-2.012,1.187-3.836,2.708-4.566c0,0,5.914,0.023,10.406,0.336c4.133,0.289,11.257,0.547,14.635,0.094
		c3.376-0.461,7.911,2.094,8.185,6.477s-2.738,10.863-3.561,13.786c-0.82,2.922-0.73,7.391-0.273,10.043
		c0,0,3.633-0.859,5.227-0.254c1.734,0.664,2.441,2.672,1.391,5.816C44.595,48.487,33.07,47.831,27.016,47.831z"/>
	<polygon fill="#26B577" points="48.249,7.096 27.992,34.069 16.542,15.29 29.362,25.874 	"/>
</g>
</svg>
