<?xml version="1.0" encoding="utf-8"?>
<!-- Generator: Adobe Illustrator 16.0.0, SVG Export Plug-In . SVG Version: 6.00 Build 0)  -->
<!DOCTYPE svg PUBLIC "-//W3C//DTD SVG 1.1//EN" "http://www.w3.org/Graphics/SVG/1.1/DTD/svg11.dtd">
<svg version="1.1" id="레이어_1" xmlns="http://www.w3.org/2000/svg" xmlns:xlink="http://www.w3.org/1999/xlink" x="0px"
	 y="0px" width="55px" height="55px" viewBox="0 0 55 55" enable-background="new 0 0 55 55" xml:space="preserve">
<path fill="#6B6E72" d="M28.16,51.847c-4.846,0-12.263-0.508-13.814-0.961c-1.552-0.457-4.838-4.293-3.377-10.133
	c1.46-5.844,4.382-11.773,4.382-15.789c0-4.02-1.37-4.84-1.37-4.84s-2.557,0.578-3.377,0.699c0,0-2.708-0.668-2.708-2.676
	c0-2.012,1.187-3.836,2.708-4.566c0,0,5.914,0.023,10.406,0.336c4.133,0.289,11.257,0.547,14.634,0.094
	c3.379-0.461,7.912,2.094,8.186,6.477c0.275,4.383-2.738,10.863-3.561,13.785c-0.82,2.922-0.73,7.391-0.273,10.043
	c0,0,3.633-0.859,5.227-0.254c1.734,0.664,2.441,2.672,1.391,5.816C45.741,52.503,34.214,51.847,28.16,51.847z"/>
<path fill="#26B577" d="M25.068,42.577v-6.223c0,0-2.864-1.879-2.37-7.512c0.494-5.632,5.796-18.671,11.098-21.636
	c5.305-2.963,10.738-5.434,10.441-3.357c-0.297,2.072-6.719,11.357-9.684,16.6c-2.963,5.234-7.509,15.013-8.497,16.105
	C26.057,36.554,25.858,41.03,25.068,42.577z"/>
<path fill="#6B6E72" d="M25.068,36.354c0,0,1.6-5.108,3.598-10.073c1.332-3.312,2.983-6.519,3.938-8.261
	c1.004-1.833,4.709-6.896,7.021-9.896c0,0-5.417,5.083-7.417,8.708c-0.955,1.73-2.778,5.478-4.25,9.25
	c-1.914,4.909-3.407,9.806-3.407,9.806l-0.364,1.235L25.068,36.354z"/>
</svg>
