<?xml version="1.0" encoding="utf-8"?>
<!-- Generator: Adobe Illustrator 16.0.0, SVG Export Plug-In . SVG Version: 6.00 Build 0)  -->
<!DOCTYPE svg PUBLIC "-//W3C//DTD SVG 1.1//EN" "http://www.w3.org/Graphics/SVG/1.1/DTD/svg11.dtd">
<svg version="1.1" id="레이어_1" xmlns="http://www.w3.org/2000/svg" xmlns:xlink="http://www.w3.org/1999/xlink" x="0px"
	 y="0px" width="55px" height="55px" viewBox="0 0 55 55" enable-background="new 0 0 55 55" xml:space="preserve">
<path fill="#6B6E72" d="M28.16,46.597c-4.846,0-12.263-0.508-13.815-0.961c-1.552-0.457-4.838-4.293-3.377-10.133
	c1.46-5.844,4.382-11.775,4.382-15.791c0-4.018-1.37-4.838-1.37-4.838s-2.557,0.578-3.377,0.699c0,0-2.708-0.668-2.708-2.676
	c0-2.012,1.187-3.836,2.708-4.566c0,0,5.914,0.023,10.406,0.336c4.133,0.287,11.257,0.547,14.634,0.092
	c3.379-0.459,7.912,2.096,8.186,6.479c0.275,4.383-2.738,10.863-3.561,13.783c-0.82,2.922-0.73,7.393-0.273,10.043
	c0,0,3.633-0.857,5.227-0.254c1.734,0.664,2.441,2.672,1.391,5.818C45.741,47.251,34.214,46.597,28.16,46.597z"/>
</svg>
